<svg version="1.1" xmlns="http://www.w3.org/2000/svg" viewBox="0 0 2048 2048" width="1000" height="1000" preserveAspectRatio="none" display="block"><defs><linearGradient id="j" gradientUnits="userSpaceOnUse" x1="825.698" y1="893.253" x2="1087.97" y2="554.383"><stop class="stop0" offset="0" stop-opacity="1" stop-color="#5128c1" data-c-stop-color="5128c1" data-o-stop-color="1"/><stop class="stop1" offset="1" stop-opacity="1" stop-color="#aa41ff" data-c-stop-color="aa41ff" data-o-stop-color="1"/></linearGradient><linearGradient id="i" gradientUnits="userSpaceOnUse" x1="990.727" y1="536.833" x2="1141.19" y2="741.783"><stop class="stop0" offset="0" stop-opacity="1" stop-color="#18895f" data-c-stop-color="18895f" data-o-stop-color="1"/><stop class="stop1" offset="1" stop-opacity="1" stop-color="#246d83" data-c-stop-color="246d83" data-o-stop-color="1"/></linearGradient><linearGradient id="h" gradientUnits="userSpaceOnUse" x1="1194.44" y1="1004.79" x2="945.18" y2="553.157"><stop class="stop0" offset="0" stop-opacity="1" stop-color="#18735d" data-c-stop-color="18735d" data-o-stop-color="1"/><stop class="stop1" offset="1" stop-opacity="1" stop-color="#22bf75" data-c-stop-color="22bf75" data-o-stop-color="1"/></linearGradient><linearGradient id="g" gradientUnits="userSpaceOnUse" x1="569.98" y1="1328.95" x2="717.222" y2="1318.2"><stop class="stop0" offset="0" stop-opacity="1" stop-color="#1e818b" data-c-stop-color="1e818b" data-o-stop-color="1"/><stop class="stop1" offset="1" stop-opacity="1" stop-color="#5951cd" data-c-stop-color="5951cd" data-o-stop-color="1"/></linearGradient><linearGradient id="f" gradientUnits="userSpaceOnUse" x1="445.85" y1="1504.16" x2="733.236" y2="1365.7"><stop class="stop0" offset="0" stop-opacity="0" stop-color="#000000" data-c-stop-color="1.91e+77" data-o-stop-color="1"/><stop class="stop1" offset="1" stop-opacity="1" stop-color="#4d2dd0" data-c-stop-color="4d2dd0" data-o-stop-color="1"/></linearGradient><linearGradient id="e" gradientUnits="userSpaceOnUse" x1="1026.03" y1="1552.6" x2="1036.38" y2="1296.42"><stop class="stop0" offset="0" stop-opacity="1" stop-color="#130c38" data-c-stop-color="130c38" data-o-stop-color="1"/><stop class="stop1" offset="1" stop-opacity="1" stop-color="#24146d" data-c-stop-color="24146d" data-o-stop-color="1"/></linearGradient><linearGradient id="d" gradientUnits="userSpaceOnUse" x1="1637.15" y1="1484.19" x2="1382.65" y2="1206.57"><stop class="stop0" offset="0" stop-opacity="1" stop-color="#1ac863" data-c-stop-color="1ac863" data-o-stop-color="1"/><stop class="stop1" offset="1" stop-opacity="1" stop-color="#29838b" data-c-stop-color="29838b" data-o-stop-color="1"/></linearGradient><linearGradient id="c" gradientUnits="userSpaceOnUse" x1="971.241" y1="1024.6" x2="1422.09" y2="1221.16"><stop class="stop0" offset="0" stop-opacity="1" stop-color="#120c2c" data-c-stop-color="120c2c" data-o-stop-color="1"/><stop class="stop1" offset="1" stop-opacity="1" stop-color="#38219f" data-c-stop-color="38219f" data-o-stop-color="1"/></linearGradient><linearGradient id="b" gradientUnits="userSpaceOnUse" x1="1318.74" y1="954.27" x2="1160.21" y2="1023.63"><stop class="stop0" offset="0" stop-opacity="1" stop-color="#3956a8" data-c-stop-color="3956a8" data-o-stop-color="1"/><stop class="stop1" offset="1" stop-opacity="1" stop-color="#4c3bba" data-c-stop-color="4c3bba" data-o-stop-color="1"/></linearGradient><linearGradient id="a" gradientUnits="userSpaceOnUse" x1="903.169" y1="1264.13" x2="1081.18" y2="526.277"><stop class="stop0" offset="0" stop-opacity="1" stop-color="#08313e" data-c-stop-color="08313e" data-o-stop-color="1"/><stop class="stop1" offset="1" stop-opacity="1" stop-color="#350f8c" data-c-stop-color="350f8c" data-o-stop-color="1"/></linearGradient></defs><path fill="#000000" d="M 0 0 L 2048 0 L 2048 2048 L 0 2048 L 0 0 z" data-c-fill="1" fill-opacity="0"/><path fill="url(#a)" d="M 1020.32 498.2 C 1021.17 494.641 1022.27 494.268 1024.69 492.599 C 1033.18 508.852 1045.33 527.897 1054.75 544.361 C 1082.04 593.073 1109.74 641.551 1137.85 689.792 C 1152.94 715.936 1173.07 748.33 1186.5 774.33 C 1202.54 801.169 1217.66 828.557 1233.34 855.614 C 1271.68 921.124 1309.51 986.928 1346.84 1053.02 C 1359.1 1074.64 1372.53 1095.95 1384.84 1117.54 C 1387.67 1122.5 1397.61 1138.51 1399.41 1143.03 C 1416.14 1169.54 1433.47 1200.9 1449.22 1228.35 L 1513.78 1340.02 L 1577.42 1449.53 C 1589.18 1469.81 1599.76 1486.95 1610.83 1507.82 C 1613.6 1512.24 1623.58 1527.12 1623.26 1531.08 L 1621.32 1530.75 C 1587.08 1532.58 1542.82 1531.19 1507.78 1531.24 L 1281.87 1531.14 L 795.5 1531.59 C 705.953 1530.98 616.402 1530.93 526.854 1531.46 C 494.623 1531.64 460.98 1531.26 428.861 1532.09 L 436.121 1526.69 L 441.329 1522.26 L 439.674 1518.63 L 444.741 1513.35 C 442.131 1513.61 442.128 1514.42 439.69 1516.61 L 439.172 1515.25 C 442.795 1502.35 457.433 1479.7 464.441 1467.64 L 502.026 1403.01 L 593.076 1245.29 L 704.149 1051.29 L 737.682 992.348 C 742.817 983.255 752.692 964.885 758.567 956.762 C 763.802 945.591 778.799 921.071 785.476 909.346 L 845.323 804.906 L 1020.32 498.2 z"/><path fill="#1c8d6b" d="M 1124.68 869.904 C 1124.12 848.771 1103.88 794.466 1101.45 770.714 C 1101.19 768.178 1109.03 762.919 1111.49 761.386 C 1116.51 758.259 1128.44 752.996 1132.58 749.326 C 1139.99 742.746 1144.28 734.766 1152.93 728.663 C 1164.38 729.62 1175.79 767.069 1186.5 774.33 C 1202.54 801.169 1217.66 828.557 1233.34 855.614 C 1271.68 921.124 1309.51 986.928 1346.84 1053.02 C 1359.1 1074.64 1372.53 1095.95 1384.84 1117.54 C 1387.67 1122.5 1397.61 1138.51 1399.41 1143.03 C 1416.14 1169.54 1433.47 1200.9 1449.22 1228.35 L 1513.78 1340.02 L 1577.42 1449.53 C 1589.18 1469.81 1599.76 1486.95 1610.83 1507.82 C 1613.6 1512.24 1623.58 1527.12 1623.26 1531.08 L 1621.32 1530.75 C 1617.87 1529.94 1607.11 1525.31 1603.26 1523.74 L 1162.25 1348.86 C 1142.63 1341.06 1034.33 1300.22 1027.75 1294.18 C 1073.66 1274.65 1120.2 1256.82 1166.16 1237.4 C 1174.07 1234.05 1181.85 1231.06 1189.6 1227.26 C 1182.49 1220.49 1156.56 1203.5 1147.03 1196.6 L 1024.35 1108.87 C 1025.04 1100.13 1025.21 1092.01 1025.11 1083.24 C 1024.61 1038.3 1024.44 993.408 1024.82 948.468 C 1024.97 930.712 1023.48 913.676 1025.37 895.849 L 1108.26 983.555 C 1123.24 999.301 1137.74 1015.38 1153.15 1030.74 C 1156.13 1028.7 1161.34 1023.52 1164.18 1020.86 C 1150.45 971.15 1138.78 920.003 1124.68 869.904 z" data-c-fill="1c8d6b"/><path fill="url(#b)" d="M 1124.68 869.904 C 1124.12 848.771 1103.88 794.466 1101.45 770.714 C 1101.19 768.178 1109.03 762.919 1111.49 761.386 C 1116.51 758.259 1128.44 752.996 1132.58 749.326 C 1139.99 742.746 1144.28 734.766 1152.93 728.663 C 1164.38 729.62 1175.79 767.069 1186.5 774.33 C 1202.54 801.169 1217.66 828.557 1233.34 855.614 C 1271.68 921.124 1309.51 986.928 1346.84 1053.02 C 1359.1 1074.64 1372.53 1095.95 1384.84 1117.54 C 1387.67 1122.5 1397.61 1138.51 1399.41 1143.03 C 1400.39 1151.73 1410.64 1165.77 1415.52 1174.23 C 1415.67 1179 1416.56 1185.29 1414.19 1189 C 1412.5 1191.63 1410.28 1194.19 1410.59 1196.49 L 1412.55 1196.6 C 1408.29 1204.84 1361.12 1242.17 1349.61 1236.2 C 1340.54 1231.5 1300.75 1180.99 1293.47 1180.22 C 1289.52 1177.8 1174.11 1055.02 1167.61 1046.25 C 1163.3 1042.91 1156.54 1035.08 1153.15 1030.74 C 1156.13 1028.7 1161.34 1023.52 1164.18 1020.86 C 1150.45 971.15 1138.78 920.003 1124.68 869.904 z"/><path fill="#156d59" d="M 1164.18 1020.86 C 1165.94 1029.36 1167.76 1037.52 1167.61 1046.25 C 1163.3 1042.91 1156.54 1035.08 1153.15 1030.74 C 1156.13 1028.7 1161.34 1023.52 1164.18 1020.86 z" data-c-fill="156d59"/><path fill="url(#c)" d="M 1025.37 895.849 L 1108.26 983.555 C 1123.24 999.301 1137.74 1015.38 1153.15 1030.74 C 1156.54 1035.08 1163.3 1042.91 1167.61 1046.25 C 1174.11 1055.02 1289.52 1177.8 1293.47 1180.22 L 1368.94 1260.65 C 1373.99 1265.96 1407.88 1300.19 1410.27 1304.87 L 1408.54 1305.15 C 1404.08 1301.08 1391.3 1287.2 1388.62 1285.78 C 1383.81 1291.29 1382.99 1313.97 1379.4 1321.55 C 1375.14 1330.54 1360.69 1336.7 1362.82 1348.09 C 1305.3 1307.49 1247.56 1267.22 1189.6 1227.26 C 1182.49 1220.49 1156.56 1203.5 1147.03 1196.6 L 1024.35 1108.87 C 1025.04 1100.13 1025.21 1092.01 1025.11 1083.24 C 1024.61 1038.3 1024.44 993.408 1024.82 948.468 C 1024.97 930.712 1023.48 913.676 1025.37 895.849 z"/><path fill="url(#d)" d="M 1399.41 1143.03 C 1416.14 1169.54 1433.47 1200.9 1449.22 1228.35 L 1513.78 1340.02 L 1577.42 1449.53 C 1589.18 1469.81 1599.76 1486.95 1610.83 1507.82 L 1609.33 1510.25 C 1606.59 1510.36 1605 1509.33 1602.48 1508.2 C 1578.89 1484.9 1557.16 1460.89 1534.59 1436.69 L 1464.21 1361.8 C 1446.43 1342.69 1428.95 1323.19 1410.27 1304.87 C 1407.88 1300.19 1373.99 1265.96 1368.94 1260.65 L 1293.47 1180.22 C 1300.75 1180.99 1340.54 1231.5 1349.61 1236.2 C 1361.12 1242.17 1408.29 1204.84 1412.55 1196.6 L 1410.59 1196.49 C 1410.28 1194.19 1412.5 1191.63 1414.19 1189 C 1416.56 1185.29 1415.67 1179 1415.52 1174.23 C 1410.64 1165.77 1400.39 1151.73 1399.41 1143.03 z"/><path fill="#2f218a" d="M 1362.82 1348.09 C 1360.69 1336.7 1375.14 1330.54 1379.4 1321.55 C 1382.99 1313.97 1383.81 1291.29 1388.62 1285.78 C 1391.3 1287.2 1404.08 1301.08 1408.54 1305.15 L 1410.27 1304.87 C 1428.95 1323.19 1446.43 1342.69 1464.21 1361.8 L 1534.59 1436.69 C 1557.16 1460.89 1578.89 1484.9 1602.48 1508.2 C 1605 1509.33 1606.59 1510.36 1609.33 1510.25 L 1610.83 1507.82 C 1613.6 1512.24 1623.58 1527.12 1623.26 1531.08 L 1621.32 1530.75 C 1617.87 1529.94 1607.11 1525.31 1603.26 1523.74 L 1604 1517.89 C 1588.55 1507.45 1574.13 1496.79 1559.08 1485.9 C 1494.53 1439.19 1426.84 1395.38 1362.82 1348.09 z" data-c-fill="2f218a"/><path fill="#2a8b8f" d="M 1610.83 1507.82 C 1613.6 1512.24 1623.58 1527.12 1623.26 1531.08 L 1621.32 1530.75 C 1617.87 1529.94 1607.11 1525.31 1603.26 1523.74 L 1604 1517.89 C 1607.35 1519.38 1614.19 1523.29 1617.66 1525.14 C 1612.34 1518.53 1608.44 1514.29 1602.48 1508.2 C 1605 1509.33 1606.59 1510.36 1609.33 1510.25 L 1610.83 1507.82 z" data-c-fill="2a8b8f"/><path fill="url(#e)" d="M 811.307 1379.64 C 816.852 1378.99 846.594 1365.53 852.999 1363.04 C 911.201 1340.41 969.24 1315.9 1027.75 1294.18 C 1034.33 1300.22 1142.63 1341.06 1162.25 1348.86 L 1603.26 1523.74 C 1607.11 1525.31 1617.87 1529.94 1621.32 1530.75 C 1587.08 1532.58 1542.82 1531.19 1507.78 1531.24 L 1281.87 1531.14 L 795.5 1531.59 C 705.953 1530.98 616.402 1530.93 526.854 1531.46 C 494.623 1531.64 460.98 1531.26 428.861 1532.09 L 436.121 1526.69 L 441.329 1522.26 C 459.634 1510.37 477.581 1497.3 495.395 1484.6 C 517.971 1468.51 541.824 1452.38 563.894 1435.68 C 580.469 1425.19 599.928 1410.76 616.046 1399.35 C 645.225 1378.38 674.576 1357.64 704.097 1337.15 C 716.918 1328.1 743.851 1307.68 756.04 1301.42 C 747.765 1311.38 726.738 1320.16 717.356 1330.39 C 718.187 1336.08 719.584 1331.05 720.328 1334.57 C 720.867 1337.12 719.243 1344.28 718.774 1346.66 C 728.679 1356.68 730.36 1371.31 736.734 1382.68 C 740.702 1389.75 749.587 1388.85 748.162 1401.65 L 749.179 1402.69 C 756.275 1399.23 805.917 1379 811.307 1379.64 z"/><path fill="url(#f)" d="M 563.894 1435.68 C 580.469 1425.19 599.928 1410.76 616.046 1399.35 C 645.225 1378.38 674.576 1357.64 704.097 1337.15 C 716.918 1328.1 743.851 1307.68 756.04 1301.42 C 747.765 1311.38 726.738 1320.16 717.356 1330.39 C 718.187 1336.08 719.584 1331.05 720.328 1334.57 C 720.867 1337.12 719.243 1344.28 718.774 1346.66 C 728.679 1356.68 730.36 1371.31 736.734 1382.68 C 740.702 1389.75 749.587 1388.85 748.162 1401.65 L 749.179 1402.69 C 756.275 1399.23 805.917 1379 811.307 1379.64 C 800.493 1385.04 780.604 1392.36 768.735 1397.01 C 740.616 1407.84 712.557 1418.84 684.56 1429.98 C 627.211 1453.47 569.66 1476.46 511.914 1498.96 C 497.966 1504.43 446.467 1527.12 436.121 1526.69 L 441.329 1522.26 C 459.634 1510.37 477.581 1497.3 495.395 1484.6 C 517.971 1468.51 541.824 1452.38 563.894 1435.68 z"/><path fill="#2f218a" d="M 758.567 956.762 L 760.41 956.949 C 777.562 925.865 799.994 885.808 818.267 855.634 L 819.596 856.175 C 819.656 860.22 805.838 876.796 818.728 885.742 C 826.087 890.85 835.154 901.216 840.111 904.317 C 859.471 916.429 890.622 916.604 906.058 933.062 C 906.451 942.274 877.491 1037.85 875.683 1051.68 C 875.829 1050.56 832.682 1096.24 829.614 1100.91 C 829.615 1101.64 829.617 1102.37 829.618 1103.09 C 816.857 1117.83 786.501 1147.46 776.96 1160.87 C 776.926 1161.53 776.891 1162.2 776.856 1162.87 C 758.705 1182.75 729.261 1213.66 712.571 1232.37 C 709.237 1257.98 705.601 1283.27 712.31 1308.53 C 713.588 1313.35 713.113 1321.44 716.84 1325.18 C 729.425 1320.03 794.556 1266.51 801.457 1268.91 C 796.461 1273.02 758.699 1300.83 756.04 1301.42 C 743.851 1307.68 716.918 1328.1 704.097 1337.15 C 674.576 1357.64 645.225 1378.38 616.046 1399.35 C 599.928 1410.76 580.469 1425.19 563.894 1435.68 C 541.824 1452.38 517.971 1468.51 495.395 1484.6 C 477.581 1497.3 459.634 1510.37 441.329 1522.26 L 439.674 1518.63 L 444.741 1513.35 C 442.131 1513.61 442.128 1514.42 439.69 1516.61 L 439.172 1515.25 C 442.795 1502.35 457.433 1479.7 464.441 1467.64 L 502.026 1403.01 L 593.076 1245.29 L 704.149 1051.29 L 737.682 992.348 C 742.817 983.255 752.692 964.885 758.567 956.762 z" data-c-fill="2f218a"/><path fill="url(#g)" d="M 556.154 1395.87 C 565.969 1383.28 593.954 1355.17 606.346 1341.99 L 708.387 1233.63 C 723.573 1217.54 738.402 1200.96 753.495 1184.81 C 758.355 1179.61 771.949 1164.51 776.96 1160.87 C 776.926 1161.53 776.891 1162.2 776.856 1162.87 C 758.705 1182.75 729.261 1213.66 712.571 1232.37 C 709.237 1257.98 705.601 1283.27 712.31 1308.53 C 713.588 1313.35 713.113 1321.44 716.84 1325.18 C 729.425 1320.03 794.556 1266.51 801.457 1268.91 C 796.461 1273.02 758.699 1300.83 756.04 1301.42 C 743.851 1307.68 716.918 1328.1 704.097 1337.15 C 674.576 1357.64 645.225 1378.38 616.046 1399.35 C 599.928 1410.76 580.469 1425.19 563.894 1435.68 C 567.05 1428.44 582.374 1422.14 589.668 1414.38 C 591.52 1408.59 584.917 1407.76 581.153 1403.74 C 577.747 1400.11 574.534 1387.25 573.693 1382.44 L 573.4 1380.66 C 568.909 1385.09 561.296 1393.68 556.154 1395.87 z"/><path fill="#1c8d6b" d="M 573.4 1380.66 L 573.693 1382.44 C 574.534 1387.25 577.747 1400.11 581.153 1403.74 C 584.917 1407.76 591.52 1408.59 589.668 1414.38 C 582.374 1422.14 567.05 1428.44 563.894 1435.68 C 541.824 1452.38 517.971 1468.51 495.395 1484.6 C 477.581 1497.3 459.634 1510.37 441.329 1522.26 L 439.674 1518.63 L 444.741 1513.35 C 445.213 1512.97 464.936 1492.38 465.906 1491.35 C 487.075 1468.8 508.122 1445.67 529.61 1423.43 C 537.009 1415.78 548.705 1402.24 556.154 1395.87 C 561.296 1393.68 568.909 1385.09 573.4 1380.66 z" data-c-fill="1c8d6b"/><path fill="#8245f0" d="M 829.618 1103.09 C 837.341 1098.21 868.636 1057.31 876.221 1055.1 C 863.909 1102.89 849.81 1150.24 837.789 1198.1 C 833.488 1215.22 827.316 1234.77 824.072 1251.58 C 867.309 1220.09 912.515 1189.58 955.844 1158.1 C 976.081 1143.39 1005.52 1124.63 1024.35 1108.87 L 1147.03 1196.6 C 1156.56 1203.5 1182.49 1220.49 1189.6 1227.26 C 1181.85 1231.06 1174.07 1234.05 1166.16 1237.4 C 1120.2 1256.82 1073.66 1274.65 1027.75 1294.18 C 969.24 1315.9 911.201 1340.41 852.999 1363.04 C 846.594 1365.53 816.852 1378.99 811.307 1379.64 C 805.917 1379 756.275 1399.23 749.179 1402.69 L 748.162 1401.65 C 749.587 1388.85 740.702 1389.75 736.734 1382.68 C 730.36 1371.31 728.679 1356.68 718.774 1346.66 C 719.243 1344.28 720.867 1337.12 720.328 1334.57 C 719.584 1331.05 718.187 1336.08 717.356 1330.39 C 726.738 1320.16 747.765 1311.38 756.04 1301.42 C 758.699 1300.83 796.461 1273.02 801.457 1268.91 C 794.556 1266.51 729.425 1320.03 716.84 1325.18 C 713.113 1321.44 713.588 1313.35 712.31 1308.53 C 705.601 1283.27 709.237 1257.98 712.571 1232.37 C 729.261 1213.66 758.705 1182.75 776.856 1162.87 C 776.891 1162.2 776.926 1161.53 776.96 1160.87 C 786.501 1147.46 816.857 1117.83 829.618 1103.09 z" data-c-fill="8245f0"/><path fill="url(#h)" d="M 1024.14 540.15 C 1023.51 524.301 1023.69 508.43 1024.69 492.599 C 1033.18 508.852 1045.33 527.897 1054.75 544.361 C 1082.04 593.073 1109.74 641.551 1137.85 689.792 C 1152.94 715.936 1173.07 748.33 1186.5 774.33 C 1175.79 767.069 1164.38 729.62 1152.93 728.663 C 1144.28 734.766 1139.99 742.746 1132.58 749.326 C 1128.44 752.996 1116.51 758.259 1111.49 761.386 C 1109.03 762.919 1101.19 768.178 1101.45 770.714 C 1103.88 794.466 1124.12 848.771 1124.68 869.904 C 1138.78 920.003 1150.45 971.15 1164.18 1020.86 C 1161.34 1023.52 1156.13 1028.7 1153.15 1030.74 C 1137.74 1015.38 1123.24 999.301 1108.26 983.555 L 1025.37 895.849 C 1023.65 892.442 1023.87 571.356 1024.14 540.15 z"/><path fill="url(#i)" d="M 1024.14 540.15 C 1023.51 524.301 1023.69 508.43 1024.69 492.599 C 1033.18 508.852 1045.33 527.897 1054.75 544.361 C 1082.04 593.073 1109.74 641.551 1137.85 689.792 C 1152.94 715.936 1173.07 748.33 1186.5 774.33 C 1175.79 767.069 1164.38 729.62 1152.93 728.663 C 1144.28 734.766 1139.99 742.746 1132.58 749.326 C 1128.44 752.996 1116.51 758.259 1111.49 761.386 C 1109.03 762.919 1101.19 768.178 1101.45 770.714 C 1103.88 794.466 1124.12 848.771 1124.68 869.904 C 1121.7 865.176 1111.28 819.59 1108.99 811.194 C 1081.25 709.411 1056.56 605.784 1027.08 504.551 L 1025.78 504.401 C 1023.39 516.883 1025.55 526.182 1024.27 538.98 L 1024.14 540.15 z"/><path fill="url(#j)" d="M 1020.32 498.2 L 1021.7 498.98 C 1021.41 505.55 1016.62 520.743 1014.81 528.053 C 1007.34 558.215 999.569 588.3 991.491 618.305 L 914.763 908.918 L 887.271 1013.11 C 885.729 1019.04 877.551 1052.4 876.221 1055.1 C 868.636 1057.31 837.341 1098.21 829.618 1103.09 C 829.617 1102.37 829.615 1101.64 829.614 1100.91 C 832.682 1096.24 875.829 1050.56 875.683 1051.68 C 877.491 1037.85 906.451 942.274 906.058 933.062 C 890.622 916.604 859.471 916.429 840.111 904.317 C 835.154 901.216 826.087 890.85 818.728 885.742 C 805.838 876.796 819.656 860.22 819.596 856.175 L 818.267 855.634 C 799.994 885.808 777.562 925.865 760.41 956.949 L 758.567 956.762 C 763.802 945.591 778.799 921.071 785.476 909.346 L 845.323 804.906 L 1020.32 498.2 z"/><path fill="#2a8b8f" d="M 428.861 1532.09 L 428.386 1530.53 C 431.079 1525.88 435.622 1522.33 439.674 1518.63 L 441.329 1522.26 L 436.121 1526.69 L 428.861 1532.09 z" data-c-fill="2a8b8f"/></svg>